<?xml version="1.0" encoding="UTF-8"?>
<!DOCTYPE svg PUBLIC "-//W3C//DTD SVG 1.1//EN" "http://www.w3.org/Graphics/SVG/1.1/DTD/svg11.dtd">
<!-- Creator: CorelDRAW -->
<svg xmlns="http://www.w3.org/2000/svg" xml:space="preserve" width="45.4913mm" height="46.8651mm" version="1.1" style="shape-rendering:geometricPrecision; text-rendering:geometricPrecision; image-rendering:optimizeQuality; fill-rule:evenodd; clip-rule:evenodd"
viewBox="0 0 1662.31 1712.51"
 xmlns:xlink="http://www.w3.org/1999/xlink"
 xmlns:xodm="http://www.corel.com/coreldraw/odm/2003">
 <defs>
  <style type="text/css">
   <![CDATA[
    .fil0 {fill:black;fill-rule:nonzero}
   ]]>
  </style>
 </defs>
 <g id="Layer_x0020_1">
  <metadata id="CorelCorpID_0Corel-Layer"/>
  <g id="_105553189775648">
   <path class="fil0" d="M479.31 489.12c0,62.74 16.55,121.66 45.4,172.73 0.19,0.49 0.51,0.87 0.76,1.33 48.67,85.31 131.88,148.38 230.49,169.98 0.36,0.11 0.74,0.18 1.12,0.26 23.92,5.16 48.72,7.93 74.16,7.93l0.03 0c130.75,-0.01 244.98,-71.8 305.65,-178.02 0.29,-0.51 0.65,-0.97 0.88,-1.52 28.83,-51.06 45.37,-109.97 45.37,-172.69 0,-62.72 -16.54,-121.62 -45.37,-172.7 -0.22,-0.55 -0.59,-1 -0.88,-1.53 -58.77,-102.87 -167.8,-173.36 -293.42,-177.7l-0.23 -123.64c-0.02,-7.5 -6.1,-13.56 -13.58,-13.56l-0.03 0c-7.49,0.01 -13.57,6.1 -13.55,13.62l0.22 123.66c-20.26,0.86 -40.07,3.42 -59.31,7.57 -0.24,0.06 -0.48,0.1 -0.72,0.17 -98.76,21.53 -182.11,84.64 -230.85,170.05 -0.24,0.47 -0.57,0.85 -0.77,1.33 -28.82,51.09 -45.37,109.99 -45.37,172.73zm676.36 -13.59l-143.06 0c-0.95,-47 -7.75,-93.87 -20.5,-140.53l124.99 0c22.78,42.15 36.48,89.86 38.58,140.53zm-38.58 167.72l-126.02 0c12.97,-46.93 20.13,-93.79 21.45,-140.54l143.15 0c-2.1,50.68 -15.8,98.41 -38.58,140.54zm-272.31 170.58l-0.27 -143.41 109.37 0c-15.56,46.08 -36.75,92.21 -64,138.33 -14.71,2.7 -29.77,4.44 -45.1,5.07zm-76.24 -5.79c-27.06,-45.88 -48.1,-91.78 -63.6,-137.62l112.41 0 0.27 143.41c-16.72,-0.69 -33.11,-2.65 -49.08,-5.79zm-261.74 -305.34l139.5 0c1.32,46.75 8.48,93.61 21.45,140.54l-122.38 0c-22.78,-42.14 -36.48,-89.86 -38.57,-140.54zm167.27 0l142.96 0 0.27 140.54 -121.04 0c-13.52,-46.93 -20.82,-93.79 -22.19,-140.54zm170.38 140.54l-0.27 -140.54 140.56 0c-1.37,46.73 -8.66,93.59 -22.19,140.54l-118.1 0zm140.46 -167.72l-140.78 0 -0.28 -140.53 119.63 0c13.31,46.66 20.44,93.52 21.42,140.53zm-167.94 0l-143.06 0c0.99,-47.02 8.1,-93.88 21.43,-140.53l121.38 0 0.25 140.53zm-170.77 0l-139.4 0c2.09,-50.67 15.79,-98.39 38.55,-140.53l121.36 0c-12.73,46.67 -19.55,93.53 -20.5,140.53zm-84.41 194.89l114.09 0c13.83,42.67 32.46,85.38 55.9,128.1 -69.97,-22.58 -129.67,-68.26 -170,-128.1zm364.46 129.52c23.8,-43.2 42.67,-86.38 56.65,-129.52l117.74 0c-41.16,61.09 -102.52,107.46 -174.39,129.52zm174.4 -492.13l-116.69 0c-13.98,-43.32 -33.05,-86.47 -57.23,-129.39 71.67,22.13 132.83,68.42 173.93,129.39zm-210.7 -138.33c27.84,45.84 49.33,91.98 64.97,138.33l-111.11 0 -0.28 -143.44c15.79,0.6 31.28,2.34 46.42,5.11zm-73.31 138.33l-112.76 0c15.54,-46.11 36.91,-91.99 64.56,-137.6 15.61,-3.08 31.61,-5.03 47.93,-5.78l0.27 143.38zm-85.36 -127.93c-23.8,42.44 -42.61,85.1 -56.44,127.93l-113.05 0c40.22,-59.69 99.74,-105.3 169.49,-127.93z"/>
   <path class="fil0" d="M569.25 1001.34l-329.68 0c-53.75,0 -97.48,43.78 -97.48,97.57l0 516.05c0,53.37 43.05,96.87 96.22,97.55l332.19 0c53.17,-0.68 96.22,-44.17 96.22,-97.55l0 -516.05c0,-53.8 -43.73,-97.57 -97.48,-97.57zm70.32 613.61c0,38.81 -31.55,70.39 -70.32,70.39l-329.68 0c-38.77,0 -70.32,-31.57 -70.32,-70.39l0 -516.04c0,-38.8 31.55,-70.39 70.32,-70.39l329.68 0c38.77,0 70.32,31.57 70.32,70.39l0 516.04z"/>
   <path class="fil0" d="M298.89 1186.19l211.03 0c29.8,0 54.06,-24.26 54.06,-54.08 0,-29.83 -24.26,-54.09 -54.06,-54.09l-211.03 0c-29.8,0 -54.05,24.26 -54.05,54.09 0.01,29.82 24.25,54.08 54.05,54.08zm0 -81.01l211.03 0c14.84,0 26.89,12.09 26.89,26.92 0,14.82 -12.05,26.9 -26.89,26.9l-211.03 0c-14.83,0 -26.89,-12.07 -26.89,-26.9 0,-14.83 12.07,-26.92 26.89,-26.92z"/>
   <path class="fil0" d="M404.42 1310.91c-75.23,0 -136.44,61.27 -136.44,136.56 0,75.3 61.21,136.55 136.44,136.55 75.23,0 136.44,-61.25 136.44,-136.55 0,-75.3 -61.21,-136.56 -136.44,-136.56zm0 245.94c-60.25,0 -109.27,-49.06 -109.27,-109.38 0,-60.31 49.02,-109.38 109.27,-109.38 60.27,0 109.28,49.06 109.28,109.38 0,60.32 -49.02,109.38 -109.28,109.38z"/>
   <path class="fil0" d="M404.42 1260.3c-103.12,0 -187.02,83.98 -187.02,187.18 0,103.2 83.9,187.18 187.02,187.18 103.12,0 187.02,-83.98 187.02,-187.18 0,-103.2 -83.9,-187.18 -187.02,-187.18zm0 347.18c-88.14,0 -159.86,-71.78 -159.86,-160 0,-88.22 71.72,-159.99 159.86,-159.99 88.15,0 159.86,71.77 159.86,159.99 0,88.22 -71.71,160 -159.86,160z"/>
   <path class="fil0" d="M1419.8 1001.34l-329.68 0c-53.74,0 -97.47,43.78 -97.47,97.57l0 516.05c0,53.37 43.05,96.87 96.22,97.55l332.19 0c53.17,-0.68 96.22,-44.17 96.22,-97.55l0 -516.05c0,-53.8 -43.73,-97.57 -97.47,-97.57zm70.32 613.61c0,38.81 -31.55,70.39 -70.32,70.39l-329.68 0c-38.77,0 -70.32,-31.57 -70.32,-70.39l0 -516.04c0,-38.8 31.55,-70.39 70.32,-70.39l329.68 0c38.77,0 70.32,31.57 70.32,70.39l0 516.04z"/>
   <path class="fil0" d="M1149.45 1186.19l211.03 0c29.82,0 54.06,-24.26 54.06,-54.08 0,-29.83 -24.26,-54.09 -54.06,-54.09l-211.03 0c-29.81,0 -54.05,24.26 -54.05,54.09 -0.02,29.82 24.24,54.08 54.05,54.08zm0 -81.01l211.03 0c14.83,0 26.89,12.09 26.89,26.92 0,14.82 -12.07,26.9 -26.89,26.9l-211.03 0c-14.83,0 -26.89,-12.07 -26.89,-26.9 0,-14.83 12.06,-26.92 26.89,-26.92z"/>
   <path class="fil0" d="M1254.97 1310.91c-75.23,0 -136.43,61.27 -136.43,136.56 0,75.3 61.2,136.55 136.43,136.55 75.23,0 136.45,-61.25 136.45,-136.55 0,-75.3 -61.21,-136.56 -136.45,-136.56zm0 245.94c-60.27,0 -109.27,-49.06 -109.27,-109.38 0,-60.31 49.02,-109.38 109.27,-109.38 60.25,0 109.28,49.06 109.28,109.38 0,60.32 -49.02,109.38 -109.28,109.38z"/>
   <path class="fil0" d="M1254.97 1260.3c-103.12,0 -187.02,83.98 -187.02,187.18 0,103.2 83.9,187.18 187.02,187.18 103.13,0 187.02,-83.98 187.02,-187.18 0,-103.2 -83.9,-187.18 -187.02,-187.18zm0 347.18c-88.14,0 -159.86,-71.78 -159.86,-160 0,-88.22 71.72,-159.99 159.86,-159.99 88.15,0 159.86,71.77 159.86,159.99 0,88.22 -71.72,160 -159.86,160z"/>
   <path class="fil0" d="M197.39 924.86c8.23,5.31 18.21,8.12 28.6,8.12 1.94,0 3.9,-0.1 5.86,-0.29 26.88,-2.72 46.85,-23.61 44.54,-46.59 -0.02,-0.31 -0.16,-0.6 -0.19,-0.92 -0.03,-0.15 0.03,-0.29 0,-0.44l-13.63 -66.83c14.52,-16.32 34.81,-29.56 60.42,-39.37 4.88,-1.88 8.27,-6.4 8.68,-11.62 0.41,-5.24 -2.23,-10.23 -6.77,-12.84 -30.78,-17.73 -62.12,-21.06 -93.2,-9.9 -6.36,2.28 -10.08,8.89 -8.73,15.52l11.61 56.93c0.03,0.23 0.07,0.41 0.12,0.62l6.79 33.28c-5.7,-1.3 -11.78,-1.79 -18.05,-1.15 -26.87,2.74 -46.85,23.63 -44.53,46.6 1.15,11.54 7.89,22.05 18.47,28.89zm86.76 -158.14c-10.36,5.84 -19.71,12.34 -28.03,19.51l-4.01 -19.69c10.7,-2.25 21.34,-2.2 32.04,0.18zm-57.97 109.69c0.99,-0.11 1.98,-0.15 2.97,-0.15 9.65,0 18.09,4.72 19.84,11.08l0.35 1.74c0.54,7.71 -8.79,15.38 -20.24,16.54 -6.23,0.65 -12.47,-0.69 -17.01,-3.62 -2.11,-1.37 -5.72,-4.32 -6.16,-8.79 -0.79,-7.78 8.67,-15.64 20.24,-16.8z"/>
   <path class="fil0" d="M1232.13 805.76c0.41,-5.23 -2.23,-10.24 -6.78,-12.84 -30.77,-17.7 -62.14,-21.04 -93.21,-9.88 -6.36,2.28 -10.08,8.88 -8.73,15.52l11.64 57.07c0.02,0.1 0.05,0.21 0.07,0.3l6.8 33.33c-5.77,-1.3 -11.88,-1.67 -18.03,-1.03 -12.45,1.27 -23.89,6.43 -32.21,14.56 -9,8.8 -13.49,20.49 -12.33,32 1.17,11.56 7.9,22.09 18.47,28.91 8.21,5.31 18.19,8.12 28.58,8.12 1.95,0 3.92,-0.1 5.89,-0.29 12.46,-1.26 23.9,-6.43 32.21,-14.55 9,-8.79 13.5,-20.47 12.33,-32.01 -0.03,-0.31 -0.16,-0.6 -0.21,-0.91 -0.03,-0.15 0.03,-0.28 0,-0.45l-13.62 -66.82c14.52,-16.34 34.82,-29.58 60.43,-39.4 4.91,-1.87 8.3,-6.4 8.71,-11.63zm-102.57 138.73c-6.23,0.65 -12.46,-0.69 -17,-3.62 -2.11,-1.37 -5.72,-4.3 -6.16,-8.79 -0.47,-4.47 2.5,-8.09 4.28,-9.84 3.87,-3.79 9.68,-6.32 15.95,-6.96 1.03,-0.1 2.05,-0.16 3.08,-0.16 5.19,0 10.15,1.33 13.95,3.77 1.94,1.25 5.08,3.94 5.91,7.86l0.24 1.18c0.32,4.35 -2.51,7.86 -4.28,9.58 -3.87,3.82 -9.68,6.34 -15.98,6.97zm27 -119.39l-4.01 -19.67c10.72,-2.24 21.35,-2.19 32.05,0.16 -10.36,5.82 -19.72,12.35 -28.04,19.51z"/>
   <path class="fil0" d="M1522.42 791.03c-7.21,-1.99 -14.7,2.23 -16.72,9.47l-24.7 89.23c-4.57,-3.77 -9.82,-6.87 -15.57,-9.12 -25.19,-9.8 -52.46,-0.26 -60.83,21.24 -8.36,21.5 5.32,46.97 30.5,56.79 6.72,2.61 13.58,3.85 20.21,3.85 18.18,0 34.48,-9.34 40.62,-25.11 0.11,-0.27 0.11,-0.55 0.21,-0.83 0.05,-0.16 0.18,-0.3 0.23,-0.46l35.53 -128.34c1.99,-7.23 -2.25,-14.7 -9.48,-16.72zm-77.47 142.3c-10.84,-4.23 -17.86,-14.32 -15.01,-21.61 1.91,-4.93 8.03,-7.76 15.16,-7.76 3.4,0 7.01,0.64 10.51,1.98 5.86,2.28 10.79,6.28 13.5,10.97 1.17,2.01 2.75,5.84 1.71,9.7l-0.33 1.17c-3.02,7.1 -14.84,9.69 -25.54,5.55z"/>
   <path class="fil0" d="M1652.36 1174.02c-7.22,-1.98 -14.7,2.23 -16.72,9.47l-24.75 89.37c-4.49,-3.76 -9.67,-6.95 -15.54,-9.23 -11.68,-4.57 -24.21,-5.15 -35.3,-1.68 -12.01,3.75 -21.31,12.11 -25.52,22.93 -8.35,21.53 5.33,47 30.5,56.79 6.67,2.6 13.61,3.91 20.41,3.91 5.11,0 10.15,-0.74 14.91,-2.22 10.88,-3.41 19.34,-10.71 24,-20.08 0.04,-0.08 0.07,-0.18 0.13,-0.28 0.42,-0.87 1.02,-1.66 1.37,-2.56 0.11,-0.27 0.12,-0.58 0.22,-0.85 0.05,-0.16 0.16,-0.28 0.22,-0.46l35.53 -128.36c2.01,-7.24 -2.23,-14.74 -9.45,-16.73zm-60.12 143.37c-5.15,1.59 -11.48,1.22 -17.36,-1.06 -10.84,-4.24 -17.86,-14.32 -15.03,-21.61 1.63,-4.18 5.9,-6.06 8.29,-6.82 2.1,-0.65 4.41,-0.98 6.79,-0.98 3.46,0 7.1,0.69 10.59,2.04 10.3,4.01 17.05,13.29 15.27,20.48l-0.36 1.35c-1.71,4.01 -5.84,5.85 -8.19,6.61z"/>
   <path class="fil0" d="M1242.14 502.47c0,7.51 6.08,13.59 13.58,13.59 30.44,0 51.63,45 51.63,85.37 0,7.52 6.09,13.59 13.58,13.59 7.49,0 13.58,-6.07 13.58,-13.59 0,-40.38 21.22,-85.37 51.63,-85.37 7.5,0 13.58,-6.08 13.58,-13.59 0,-7.51 -6.08,-13.59 -13.58,-13.59 -33.9,0 -51.63,-42.78 -51.63,-85.04 0,-7.52 -6.08,-13.59 -13.58,-13.59 -7.49,0 -13.58,6.07 -13.58,13.59 0,42.25 -17.73,85.04 -51.63,85.04 -7.49,0 -13.58,6.08 -13.58,13.59zm78.8 -33.1c6.78,14.14 15.84,25.63 26.6,33.68 -10.97,8.88 -19.95,21.34 -26.6,35.68 -6.67,-14.34 -15.64,-26.8 -26.61,-35.68 10.77,-8.05 19.82,-19.54 26.61,-33.68z"/>
   <path class="fil0" d="M1124.37 153.18c30.43,0 51.63,45 51.63,85.37 0,7.51 6.09,13.59 13.58,13.59 7.49,0 13.58,-6.08 13.58,-13.59 0,-40.39 21.22,-85.37 51.63,-85.37 7.49,0 13.58,-6.08 13.58,-13.59 0,-7.52 -6.08,-13.6 -13.58,-13.6 -33.9,0 -51.63,-42.78 -51.63,-85.05 0,-7.51 -6.08,-13.59 -13.58,-13.59 -7.49,0 -13.58,6.08 -13.58,13.59 0,42.26 -17.73,85.05 -51.63,85.05 -7.49,0 -13.58,6.08 -13.58,13.6 0,7.51 6.08,13.59 13.58,13.59zm65.21 -46.67c6.78,14.14 15.84,25.64 26.6,33.68 -10.97,8.88 -19.95,21.34 -26.6,35.68 -6.66,-14.34 -15.63,-26.8 -26.6,-35.68 10.78,-8.04 19.83,-19.54 26.6,-33.68z"/>
   <path class="fil0" d="M427.66 842.5c-7.49,0 -13.58,6.08 -13.58,13.59 0,7.52 6.09,13.6 13.58,13.6 30.43,0 51.63,45 51.63,85.36 0,7.52 6.09,13.6 13.58,13.6 7.49,0 13.58,-6.08 13.58,-13.6 0,-40.37 21.21,-85.36 51.63,-85.36 7.49,0 13.58,-6.08 13.58,-13.6 0,-7.51 -6.09,-13.59 -13.58,-13.59 -33.9,0 -51.63,-42.79 -51.63,-85.05 0,-7.52 -6.08,-13.6 -13.58,-13.6 -7.49,0 -13.58,6.08 -13.58,13.6 0.01,42.26 -17.73,85.05 -51.63,85.05zm65.22 -19.49c6.78,14.13 15.83,25.63 26.61,33.68 -10.97,8.87 -19.96,21.33 -26.61,35.68 -6.67,-14.34 -15.63,-26.8 -26.6,-35.69 10.76,-8.05 19.82,-19.54 26.6,-33.67z"/>
   <path class="fil0" d="M331.28 279.85c30.43,0 51.63,45 51.63,85.37 0,7.51 6.08,13.59 13.58,13.59 7.49,0 13.58,-6.08 13.58,-13.59 0,-40.39 21.21,-85.37 51.63,-85.37 7.49,0 13.58,-6.08 13.58,-13.59 0,-7.52 -6.09,-13.6 -13.58,-13.6 -33.89,0 -51.63,-42.77 -51.63,-85.04 0,-7.52 -6.08,-13.6 -13.58,-13.6 -7.49,0 -13.58,6.08 -13.58,13.6 0,42.25 -17.74,85.04 -51.63,85.04 -7.49,0 -13.58,6.08 -13.58,13.6 0,7.51 6.08,13.59 13.58,13.59zm65.22 -46.68c6.79,14.13 15.83,25.63 26.61,33.67 -10.97,8.88 -19.95,21.34 -26.61,35.68 -6.67,-14.34 -15.63,-26.8 -26.6,-35.68 10.77,-8.05 19.82,-19.55 26.6,-33.67z"/>
   <path class="fil0" d="M921.65 1021.86l-100.06 -71.03c-3.41,-2.4 -7.73,-3.13 -11.76,-1.95 -4,1.21 -7.24,4.2 -8.76,8.1l-33.54 86.31c-4.15,-4.21 -9.07,-7.83 -14.58,-10.64 -11.15,-5.7 -23.55,-7.56 -34.96,-5.22 -12.33,2.53 -22.41,9.91 -27.69,20.23 -10.46,20.57 0.58,47.29 24.64,59.56 8.01,4.09 16.67,6.2 25.14,6.2 3.33,0 6.61,-0.31 9.83,-0.98 12.33,-2.53 22.41,-9.91 27.69,-20.24 0.13,-0.27 0.18,-0.58 0.31,-0.86 0.07,-0.15 0.19,-0.24 0.24,-0.39l41.94 -107.88 77.23 54.8 -29.69 76.42c-4.16,-4.21 -9.08,-7.83 -14.58,-10.64 -11.17,-5.67 -23.58,-7.57 -34.96,-5.22 -12.33,2.53 -22.41,9.91 -27.69,20.24 -10.47,20.56 0.57,47.28 24.63,59.55 8.02,4.09 16.68,6.2 25.13,6.2 3.33,0 6.62,-0.31 9.83,-0.98 11.25,-2.29 20.44,-8.78 26,-17.72 0.2,-0.25 0.35,-0.55 0.55,-0.82 0.35,-0.6 0.82,-1.09 1.14,-1.7 0.12,-0.24 0.16,-0.51 0.27,-0.76 0.09,-0.17 0.22,-0.31 0.29,-0.49l48.25 -124.13c2.25,-5.77 0.27,-12.39 -4.81,-15.98zm-177.21 63.97c-5.28,1.08 -11.54,0.07 -17.16,-2.8 -10.36,-5.3 -16.34,-16.04 -12.8,-23 2.03,-4.01 6.48,-5.44 8.95,-5.95 1.38,-0.29 2.84,-0.42 4.33,-0.42 4.19,0 8.69,1.11 12.83,3.22 5.61,2.87 10.11,7.34 12.34,12.26 0.96,2.12 2.12,6.03 0.73,9.77l-0.46 1.18c-2.1,3.8 -6.36,5.23 -8.78,5.73zm100.08 71.01c-5.27,1.06 -11.54,0.08 -17.17,-2.8 -10.36,-5.3 -16.34,-16.04 -12.77,-23 2.03,-4 6.48,-5.45 8.94,-5.94 1.38,-0.29 2.83,-0.43 4.32,-0.43 4.21,0 8.71,1.12 12.86,3.23 5.61,2.86 10.1,7.32 12.34,12.24 0.97,2.11 2.13,6.04 0.74,9.78l-0.47 1.18c-2.1,3.82 -6.37,5.25 -8.78,5.73z"/>
   <path class="fil0" d="M97.47 1384.15l-26.59 -130.5c-1.49,-7.35 -8.62,-12.1 -16.02,-10.59 -7.36,1.49 -12.1,8.69 -10.6,16.04l18.48 90.71c-5.77,-1.3 -11.86,-1.68 -18.01,-1.04 -12.46,1.27 -23.91,6.43 -32.22,14.56 -9,8.78 -13.49,20.49 -12.33,32 1.17,11.55 7.9,22.09 18.47,28.91 8.23,5.31 18.21,8.13 28.61,8.13 1.95,0 3.91,-0.09 5.87,-0.28 26.87,-2.74 46.85,-23.63 44.52,-46.6 -0.03,-0.31 -0.16,-0.6 -0.19,-0.91 0,-0.15 0.04,-0.29 0.01,-0.44zm-47.05 20.88c-6.22,0.65 -12.47,-0.67 -17.02,-3.62 -2.12,-1.37 -5.72,-4.31 -6.18,-8.79 -0.46,-4.47 2.5,-8.09 4.28,-9.84 3.88,-3.79 9.69,-6.33 15.96,-6.96 1.03,-0.11 2.05,-0.16 3.08,-0.16 5.19,0 10.15,1.33 13.95,3.77 1.94,1.25 5.06,3.92 5.91,7.86l0.24 1.19c0.54,7.71 -8.79,15.4 -20.23,16.55z"/>
  </g>
 </g>
</svg>
