<?xml version="1.0" encoding="UTF-8"?>
<!DOCTYPE svg PUBLIC "-//W3C//DTD SVG 1.1//EN" "http://www.w3.org/Graphics/SVG/1.1/DTD/svg11.dtd">
<!-- Creator: CorelDRAW -->
<svg xmlns="http://www.w3.org/2000/svg" xml:space="preserve" width="86.2653mm" height="71.4856mm" version="1.1" style="shape-rendering:geometricPrecision; text-rendering:geometricPrecision; image-rendering:optimizeQuality; fill-rule:evenodd; clip-rule:evenodd"
viewBox="0 0 7106.86 5889.25"
 xmlns:xlink="http://www.w3.org/1999/xlink"
 xmlns:xodm="http://www.corel.com/coreldraw/odm/2003">
 <defs>
  <style type="text/css">
   <![CDATA[
    .fil0 {fill:black}
   ]]>
  </style>
 </defs>
 <g id="Layer_x0020_1">
  <metadata id="CorelCorpID_0Corel-Layer"/>
  <g id="_105553189729984">
   <path class="fil0" d="M4060.19 4054.95c4.05,35.08 18.17,56.8 34.33,81.86 18.17,28.4 28.27,51.79 44.41,80.19 68.65,111.93 278.62,392.58 278.62,471.1 0,120.28 -155.46,177.08 -250.36,177.08 -8.07,-40.1 -24.23,-65.16 -36.34,-105.25l-155.47 -432.68c-14.13,-41.76 -30.28,-73.5 -40.38,-110.25 -18.17,-63.48 78.74,-130.31 125.17,-162.05zm-78.73 -427.67c92.87,21.72 218.04,63.48 329.09,63.48l0 160.38c-48.45,0 -70.66,-13.37 -98.93,-35.09l-157.48 -118.61c-32.3,-28.4 -48.46,-33.41 -72.68,-70.17zm-890.38 45.11c74.7,-55.13 86.82,-273.98 98.93,-362.51 10.1,-73.51 40.38,-101.91 109.03,-123.62 46.44,-15.04 141.33,-53.46 183.73,-56.8l0 53.46c24.23,-16.71 44.41,-46.78 52.49,-80.18l26.25 0c16.15,66.82 32.3,135.32 46.43,203.81 28.27,136.99 250.36,833.62 300.83,972.28l169.6 462.75c56.53,172.07 147.38,404.28 191.81,562.99 12.11,40.1 16.15,70.17 28.27,106.92 12.11,40.1 48.46,88.54 -68.65,140.33 -90.85,40.09 -498.69,88.54 -642.04,121.95 -143.35,33.41 -266.5,63.48 -403.8,103.57 -70.66,20.04 -430.04,148.69 -510.8,48.45 -100.95,-121.95 -80.76,-290.68 -96.92,-410.96 -38.36,-300.71 -82.78,-529.58 -216.03,-798.55 -125.18,-252.26 -165.56,-370.87 -205.94,-683.27 -16.15,-116.94 -6.06,-203.81 100.95,-198.8 82.78,3.34 10.09,23.39 34.32,125.3 52.49,-38.42 -6.06,-108.59 96.92,-178.76 -36.35,160.38 -14.14,158.7 10.09,258.94 50.48,-38.42 -26.25,-203.81 68.64,-295.69l222.09 -143.67c129.22,-76.85 274.58,-148.69 411.88,-218.85 24.23,-11.69 48.46,-16.7 70.67,-26.73 0,148.68 -76.72,332.44 -78.74,417.64zm621.85 -561.31c0,-103.58 86.82,-187.11 185.75,-68.49 58.55,71.83 123.16,136.99 197.86,193.78 48.45,36.75 96.91,71.84 163.53,95.23 100.95,33.41 121.15,15.04 209.98,-6.68 -6.06,68.49 -24.23,135.32 -42.4,188.77 -12.11,30.07 -64.61,140.32 -90.85,140.32 -143.35,0 -331.12,-38.42 -434.08,-143.67 -80.76,-83.53 -189.79,-300.7 -189.79,-399.26zm-133.26 -16.71c42.4,-10.03 64.61,-26.73 107.01,-36.75 0,128.63 2.02,178.75 54.51,294.02 16.16,38.42 36.34,75.18 60.57,108.59 141.33,192.12 109.03,195.46 343.23,350.82 42.4,28.4 66.63,41.76 111.05,66.82 -18.17,25.06 -197.86,140.33 -262.47,190.45 -32.3,25.06 -50.48,53.46 -84.8,75.18l-173.63 -509.53c-42.4,-125.29 -96.92,-270.63 -121.15,-395.93 -6.06,-28.4 -22.2,-121.95 -34.32,-143.67zm302.85 -106.92c22.21,-11.7 66.62,-38.42 88.83,-45.11 111.05,73.5 157.48,123.62 290.74,163.71 42.39,11.7 96.91,16.71 129.21,31.74 -18.17,35.09 -94.89,131.98 -125.17,152.02 -82.78,-20.04 -252.37,-148.68 -300.83,-207.15 -18.17,-21.72 -18.17,-28.4 -40.38,-48.44 -18.17,-20.05 -28.27,-26.73 -42.4,-46.78zm1140.73 -988.98c0,-68.49 58.55,-165.39 92.87,-210.5 42.4,-56.8 113.06,-101.9 119.12,-190.45l187.77 0c-16.16,23.39 -82.78,61.81 -111.05,83.53l-288.71 317.42zm-783.37 -409.3c266.5,0 514.84,8.35 773.27,8.35 -48.45,71.84 -88.83,68.49 -171.61,237.22 -18.17,38.42 -131.23,252.26 -157.48,252.26 -90.86,0 -173.64,-56.8 -250.36,-96.89 -82.78,-45.11 -36.35,-235.55 -129.22,-340.8 -22.21,-23.38 -52.49,-41.76 -64.61,-60.14zm-286.7 0c151.42,0 250.35,-18.37 329.09,63.48 44.42,48.45 84.8,240.56 90.86,310.73 -26.25,11.7 -18.17,8.35 -54.51,8.35 20.18,28.4 44.41,16.71 86.82,30.07 60.57,21.72 135.27,103.58 252.37,111.93 -44.42,65.15 -232.19,128.63 -365.44,312.4 -34.33,48.44 -100.95,192.11 -36.35,240.56 8.08,-285.67 314.97,-419.32 426.01,-527.91 167.58,-163.71 252.37,-541.27 411.87,-541.27 141.33,0 173.63,-18.37 16.16,158.7 -44.42,50.12 -80.76,123.62 -104.99,190.45 -50.48,153.7 -12.11,245.58 -84.8,359.18 -22.21,31.74 -50.48,56.8 -58.55,93.55 88.83,-20.04 141.33,-123.62 143.35,-232.21 2.02,-120.29 34.32,-131.98 123.16,-250.59 86.82,-116.94 298.81,-319.08 438.12,-319.08 78.74,0 119.12,-6.68 185.75,10.03 -68.65,101.91 -316.99,155.37 -500.71,461.08 -20.19,35.09 -38.36,63.48 -60.57,98.57 -14.14,23.38 -54.51,83.53 -60.57,106.91 92.87,-25.05 125.17,-215.5 290.73,-375.88 26.25,-26.73 62.59,-50.12 94.89,-73.51 60.57,-45.11 127.2,-68.49 199.88,-140.32 92.88,-91.88 38.37,-76.85 214.02,-76.85 0,55.13 -32.3,76.85 -64.61,103.57 -62.59,53.46 -220.07,125.3 -323.04,210.5 -282.66,228.87 -224.11,402.61 -492.63,557.98 -20.19,11.69 -36.35,16.7 -58.55,30.07 -129.22,76.85 -258.44,120.28 -355.35,267.29 -46.44,66.82 -84.8,165.39 -84.8,272.3 0,33.41 6.06,16.71 8.07,53.46 -177.67,0 -141.33,26.73 -363.42,-61.81 -84.8,-33.41 -226.13,-103.57 -276.6,-178.76 84.8,-20.04 169.6,-88.54 187.77,-177.08 30.28,-165.39 -86.82,-302.38 14.14,-502.85 24.22,-50.12 60.57,-75.18 90.85,-121.95 -20.19,5.01 -20.19,8.35 -44.42,10.02 0,-71.83 0,-95.22 -14.13,-155.36 -10.1,-43.44 -30.28,-98.56 -48.46,-130.31 -76.72,-135.32 -115.08,-143.67 -151.42,-195.46zm-817.7 -160.38c167.58,0 304.87,8.35 470.43,8.35 161.52,0 335.15,-3.34 482.54,8.35 123.16,11.7 795.49,1.67 979.21,1.67 169.6,0 308.91,8.35 480.52,8.35 488.6,0 979.21,0 1467.81,0 -14.14,20.04 -48.46,35.08 -72.69,50.11 -26.25,16.71 -52.49,38.42 -76.72,48.45 -64.61,26.73 -403.8,0 -498.69,0l-2822.56 -18.38c-218.05,0 -220.07,35.09 -391.69,-90.21 -10.09,-8.35 -12.11,-10.03 -18.17,-16.71zm-107 -26.73c32.3,48.45 201.9,147.01 262.47,163.71 102.97,26.73 288.71,15.04 413.9,15.04 185.74,0 207.95,-21.72 310.92,115.27 54.51,68.49 179.69,337.46 86.82,442.71 -189.79,222.19 70.66,497.84 -96.92,641.51 -26.25,20.04 -88.83,56.8 -123.16,63.48 14.14,61.81 40.38,41.76 54.51,90.21 -32.3,8.35 -28.27,16.71 -62.59,28.4 -36.35,11.7 -38.37,-1.67 -80.76,-1.67 -32.3,0 -145.37,75.18 -183.73,91.88 -24.23,10.03 -30.28,10.03 -56.53,15.04 -20.18,1.67 -10.09,-1.66 -30.28,5.02 -54.51,16.71 -2.02,18.37 -72.68,33.41 -84.8,20.05 -189.79,41.77 -250.36,98.56 -30.28,28.41 6.06,13.37 -44.42,25.06 -16.16,5.01 -40.38,8.35 -58.55,13.36 -36.34,13.37 -62.59,30.07 -94.89,48.45l-619.84 359.18c-50.47,21.72 -48.45,25.06 -74.7,66.82 -109.03,-13.36 -175.65,-25.06 -187.77,123.62 -28.27,-6.68 -44.41,-21.72 -66.62,-40.1 -36.35,-28.4 -26.25,-36.75 -56.53,-58.47 -66.63,-53.46 -119.13,-43.43 -171.61,-43.43 -42.4,0 -104.99,-73.51 -119.13,-111.93 -54.51,-152.02 -68.64,-187.1 -179.69,-299.04 -94.89,-95.22 -151.43,-131.97 -230.16,-252.25 -207.96,-310.73 -353.33,-1077.53 -759.14,-1156.05 -129.22,-25.06 -256.42,-48.44 -373.52,-106.92 -70.66,-35.08 -72.68,-56.8 -163.54,-76.85 10.1,26.73 34.33,28.41 60.58,46.78 24.22,15.04 42.39,25.06 66.62,40.1 169.6,103.57 357.36,90.21 482.54,158.7 159.5,88.54 214.02,178.76 298.81,342.47l74.71 147.01c94.89,188.77 151.42,412.64 266.5,589.72 72.69,113.6 163.54,200.46 254.39,295.69 2.02,1.67 4.04,3.34 4.04,5.01 161.52,173.74 133.26,165.39 74.71,285.67 -22.21,45.11 -80.76,152.02 -6.06,172.07 0,-95.22 52.49,-131.98 70.66,-205.48 2.02,1.67 4.04,3.34 4.04,6.68 4.05,23.39 30.28,56.8 42.4,71.84 18.17,23.39 46.44,53.46 60.57,73.5 -60.57,15.04 -189.79,130.31 -98.93,98.56 42.39,-15.04 157.48,-90.21 197.86,-90.21 48.45,0 102.96,23.39 123.16,53.46 -42.4,63.48 -139.31,138.66 -191.81,217.17 -38.36,58.48 -46.44,66.83 -100.94,103.58 -30.29,20.04 -98.93,58.47 -143.36,61.81 12.12,16.71 10.1,18.37 36.35,18.37 80.76,0 189.78,-91.88 230.16,-152.02 30.28,-45.11 137.29,-177.08 187.77,-203.81 82.78,172.07 -141.33,447.71 -34.33,569.67 0,-232.21 88.84,-305.72 88.84,-481.13 0,-45.11 -8.08,-40.09 -10.1,-80.18 52.49,28.4 78.74,45.11 88.83,108.59 18.17,111.93 34.33,215.5 66.63,325.76 16.15,53.46 26.25,100.24 44.41,150.35 38.37,96.9 74.71,188.78 111.05,280.66 26.25,65.16 102.97,233.89 109.03,292.36 -143.35,33.41 -274.58,202.14 -490.61,90.21 -22.21,-11.69 -28.27,-18.37 -50.48,-30.07 -278.62,-155.36 -518.89,-360.84 -765.2,-561.31 -60.58,-48.45 -115.09,-88.55 -175.66,-136.99 -58.55,-48.45 -117.1,-88.55 -177.67,-133.65 -56.53,-41.76 -141.33,-133.64 -175.65,-136.99 12.11,55.13 68.64,91.88 109.03,123.62l942.87 740.07c66.63,40.1 127.2,80.19 197.86,121.95 155.47,93.55 260.46,105.25 430.05,35.08 58.55,-25.05 111.05,-61.8 171.61,-76.84 6.06,58.47 62.59,238.89 80.76,482.79 10.09,136.99 10.09,372.54 187.76,372.54l30.28 0c153.45,-5.01 288.72,-41.76 419.95,-75.18 135.27,-33.41 260.46,-68.49 395.73,-103.57 133.25,-33.41 274.58,-50.12 421.97,-75.18 104.98,-20.05 201.9,-28.41 282.66,-91.88 82.78,-65.16 48.45,-155.37 24.23,-240.57l-133.26 -410.96c86.82,-6.68 266.5,-81.86 266.5,-187.1 0,-111.93 -123.16,-258.94 -173.63,-342.47 -34.32,-56.8 -60.57,-101.91 -96.91,-160.38 -18.17,-31.74 -26.25,-48.45 -42.4,-81.86 -18.17,-33.41 -28.27,-60.14 -42.39,-91.88 26.25,-16.7 54.51,-38.42 82.78,-60.14 42.39,-31.74 141.33,-75.18 159.49,-125.29 12.12,-33.41 -4.04,-96.9 10.1,-142 18.17,-66.82 201.9,-145.34 139.31,-410.96 -58.55,0 -94.9,18.38 -169.6,18.38 4.04,-51.79 66.62,-133.65 100.94,-158.7 40.38,-30.07 113.06,-10.03 153.45,-33.41 32.3,-18.38 4.04,-21.72 4.04,-48.45 0,-111.93 38.36,-203.81 86.82,-270.63 155.46,-212.16 458.31,-242.23 605.7,-461.09 127.19,-187.1 127.19,-265.62 310.92,-404.28 117.1,-88.54 373.51,-200.46 377.55,-334.12l866.15 3.34c56.53,-6.68 149.4,-73.51 201.9,-100.24 28.27,-15.04 50.48,-36.75 80.76,-45.11l0 -35.09c-258.43,0 -494.66,-10.02 -757.12,-10.02 -137.29,0 -244.3,-8.35 -373.51,-8.35l-2921.49 -8.35c-10.09,0 -24.22,5.01 -26.24,8.35z"/>
   <path class="fil0" d="M3305.09 1214.95l738.96 8.35c50.48,0 64.61,6.68 104.99,10.03 272.56,15.04 589.55,0 864.12,0 581.47,0 1136.7,8.35 1718.17,8.35 -88.83,133.64 -80.76,98.56 -355.35,98.56 -151.42,0 -302.85,0 -454.27,0 -84.8,0 -133.26,-10.03 -214.02,-10.03l-2277.42 -10.02c-20.19,-6.69 -111.05,-83.53 -125.18,-105.25zm1762.58 -890.42c436.11,0 1003.44,177.08 1271.97,526.23 36.34,43.43 234.2,300.71 258.43,345.81l-1175.06 0c-133.26,0 -250.36,-8.35 -391.69,-8.35 -526.96,0 -1033.73,-8.35 -1566.74,-8.35 216.03,-409.29 617.81,-664.89 1053.92,-788.52 145.37,-41.76 367.46,-66.82 549.16,-66.82zm78.74 -35.08c-78.74,0 -135.27,8.35 -222.09,8.35 -14.13,-56.8 -44.41,-83.53 -44.41,-160.38 0,-128.63 302.84,-152.02 302.84,-8.35 0,56.8 -24.22,110.25 -36.34,160.38zm-302.85 -160.38c0,105.25 28.27,91.88 46.44,168.73 -456.29,38.42 -745.01,168.73 -1053.92,397.6 -58.55,45.11 -104.98,88.54 -155.46,138.65 -159.5,158.71 -157.48,165.39 -242.28,345.81 -52.49,0 -78.74,5.01 -117.1,8.35 -50.48,1.67 -137.29,-6.68 4.04,103.57 125.18,96.9 48.46,41.77 199.88,58.48 111.05,11.69 266.51,6.68 383.61,6.68l1524.34 10.02c179.7,0 327.08,8.35 506.77,8.35 169.6,0 337.17,0 506.78,0 80.75,0 187.76,13.37 234.2,-23.39 36.34,-28.4 109.03,-100.23 113.06,-145.33 -46.44,-11.7 -74.71,-10.03 -133.26,-10.03 -115.08,-172.07 -302.85,-427.67 -470.43,-561.32 -185.74,-148.68 -484.56,-272.3 -730.88,-312.4 -42.39,-6.68 -80.76,-11.69 -131.23,-18.37 -30.28,-5.02 -107.01,-1.67 -137.29,-15.04 -12.12,-13.36 98.93,-172.07 -20.19,-255.6 -113.06,-76.85 -327.08,-13.36 -327.08,95.23z"/>
   <path class="fil0" d="M2386.45 4143.49l-18.17 0c4.04,101.91 205.93,446.05 288.71,532.92 52.49,58.48 173.63,168.73 240.26,215.51 16.15,13.36 0,16.71 22.21,11.7 24.22,-6.69 -44.42,-61.81 -58.55,-75.18l-80.76 -90.21c-26.25,-26.73 -54.51,-51.79 -78.74,-80.18 -104.99,-123.62 -278.62,-357.5 -314.96,-514.54z"/>
   <polygon class="fil0" points="3091.08,3672.39 3080.98,3672.39 3089.06,3682.41 "/>
  </g>
 </g>
</svg>
