<?xml version="1.0" encoding="UTF-8"?>
<!DOCTYPE svg PUBLIC "-//W3C//DTD SVG 1.1//EN" "http://www.w3.org/Graphics/SVG/1.1/DTD/svg11.dtd">
<!-- Creator: CorelDRAW -->
<svg xmlns="http://www.w3.org/2000/svg" xml:space="preserve" width="75mm" height="17.2351mm" version="1.1" style="shape-rendering:geometricPrecision; text-rendering:geometricPrecision; image-rendering:optimizeQuality; fill-rule:evenodd; clip-rule:evenodd"
viewBox="0 0 7483.38 1719.69"
 xmlns:xlink="http://www.w3.org/1999/xlink"
 xmlns:xodm="http://www.corel.com/coreldraw/odm/2003">
 <defs>
  <style type="text/css">
   <![CDATA[
    .fil0 {fill:#383737;fill-rule:nonzero}
   ]]>
  </style>
 </defs>
 <g id="Layer_x0020_1">
  <metadata id="CorelCorpID_0Corel-Layer"/>
  <g id="_105553193755808">
   <path class="fil0" d="M502.39 670.49c56.66,0 112.71,6.44 168.1,19.31 55.39,12.89 96.61,25.76 123.66,38.65l40.57 19.34 -112.05 224.13c-77.3,-41.22 -150.72,-61.83 -220.27,-61.83 -38.66,0 -66.02,4.18 -82.14,12.55 -16.08,8.38 -24.15,24.15 -24.15,47.33 0,5.16 0.64,10.32 1.95,15.48 1.28,5.13 3.85,9.97 7.71,14.49 3.87,4.5 7.41,8.35 10.63,11.59 3.22,3.22 8.7,6.75 16.43,10.62 7.71,3.88 13.86,6.77 18.35,8.69 4.52,1.95 11.91,4.84 22.23,8.7 10.29,3.87 18.03,6.77 23.19,8.69 5.16,1.94 13.85,4.84 26.08,8.69 12.23,3.88 21.56,6.44 28,7.74 39.94,11.59 74.72,24.47 104.35,38.63 29.64,14.17 60.86,33.51 93.72,57.97 32.85,24.49 58.29,55.39 76.32,92.74 18.03,37.36 27.04,79.87 27.04,127.53 0,225.43 -156.51,338.14 -469.53,338.14 -70.84,0 -138.14,-11.26 -201.9,-33.81 -63.77,-22.53 -109.82,-44.75 -138.16,-66.66l-42.52 -32.84 139.12 -233.81c10.32,9.01 23.85,19.65 40.57,31.88 16.75,12.26 47.04,28.99 90.84,50.26 43.79,21.24 81.79,31.88 113.99,31.88 70.86,0 106.28,-23.85 106.28,-71.5 0,-21.91 -9.02,-38.97 -27.07,-51.21 -18.03,-12.23 -48.61,-26.09 -91.77,-41.54 -43.15,-15.46 -76.98,-29.62 -101.43,-42.52 -61.85,-32.2 -110.8,-68.58 -146.86,-109.16 -36.06,-40.58 -54.11,-94.37 -54.11,-161.35 0,-100.48 38.98,-178.73 116.92,-234.76 77.94,-56.06 183.23,-84.05 315.92,-84.05z"/>
   <path class="fil0" d="M914.3 1572.83c-107.47,-97.88 -161.19,-223.48 -161.19,-376.78 0,-153.29 56.26,-279.2 168.79,-377.74 112.49,-98.54 251.54,-147.81 417.15,-147.81 163.09,0 300.56,49.59 412.45,148.77 111.87,99.19 167.81,224.79 167.81,376.78 0,152.01 -54.7,277.28 -164.04,375.83 -109.37,98.54 -248.07,147.81 -416.23,147.81 -174.44,0 -316.03,-48.95 -424.75,-146.85zm259.77 -544.88c-42.97,43.79 -64.47,99.84 -64.47,168.1 0,68.29 20.85,123.99 62.57,167.15 41.72,43.15 96.73,64.72 164.98,64.72 65.74,0 119.78,-21.88 162.12,-65.67 42.36,-43.82 63.54,-99.21 63.54,-166.19 0,-68.26 -21.82,-124.3 -65.43,-168.1 -43.61,-43.8 -97.01,-65.68 -160.22,-65.68 -64.48,0 -118.84,21.88 -163.09,65.68z"/>
   <path class="fil0" d="M2212.55 699.48l0 471.46c0,97.88 14.56,167.45 43.63,208.69 29.08,41.21 78.37,61.82 147.9,61.82 69.52,0 118.84,-20.61 147.91,-61.82 29.08,-41.24 43.61,-110.8 43.61,-208.69l0 -471.46 335.61 0 0 554.54c0,164.88 -42.04,283.72 -126.09,356.49 -84.07,72.78 -217.77,109.19 -401.05,109.19 -183.32,0 -316.99,-36.41 -401.04,-109.19 -84.09,-72.77 -126.13,-191.6 -126.13,-356.49l0 -554.54 335.63 0z"/>
   <polygon class="fil0" points="2968.51,1690.7 2968.51,28.98 3304.12,28.98 3304.12,1690.7 "/>
   <path class="fil0" d="M4216.45 950.67c-63.19,0 -117.55,23.83 -163.06,71.48 -45.51,47.67 -68.29,104.98 -68.29,171.98 0,68.26 22.78,126.23 68.29,173.9 45.51,47.64 99.87,71.47 163.06,71.47 30.35,0 59.11,-3.85 86.27,-11.59 27.2,-7.71 47.11,-15.45 59.75,-23.18l17.04 -11.59 113.79 237.66c-8.85,6.46 -21.17,14.49 -36.97,24.17 -15.79,9.65 -51.82,22.87 -108.11,39.59 -56.23,16.75 -116.61,25.13 -181.06,25.13 -142.84,0 -268.33,-51.22 -376.42,-153.62 -108.08,-102.4 -162.12,-225.11 -162.12,-368.08 0,-144.28 54.04,-268.27 162.12,-371.94 108.09,-103.7 233.58,-155.55 376.42,-155.55 64.45,0 123.87,7.71 178.23,23.19 54.38,15.45 92.92,30.9 115.68,46.37l32.22 23.19 -113.79 233.81c-41.7,-30.92 -96.06,-46.38 -163.06,-46.38z"/>
   <path class="fil0" d="M4429.08 1690.7l0 -991.23 335.61 0 0 142.97 3.79 0c2.52,-5.16 6.66,-11.59 12.34,-19.31 5.69,-7.73 18.01,-21.27 36.97,-40.58 18.97,-19.33 39.21,-36.72 60.69,-52.16 21.5,-15.48 49.29,-29.32 83.41,-41.56 34.13,-12.23 68.92,-18.35 104.32,-18.35 36.65,0 72.68,5.16 108.08,15.45 35.39,10.32 61.32,20.61 77.73,30.93l26.57 15.45 -140.34 289.84c-41.72,-36.06 -99.86,-54.09 -174.44,-54.09 -40.44,0 -75.22,9.01 -104.3,27.04 -29.08,18.03 -49.61,39.94 -61.61,65.7 -12,25.74 -20.54,47.65 -25.6,65.68 -5.07,18.03 -7.6,32.2 -7.6,42.52l0 521.7 -335.61 0z"/>
   <path class="fil0" d="M5248.53 1568.97c-91.01,-101.76 -136.52,-226.07 -136.52,-372.93 0,-146.83 45.51,-271.14 136.52,-372.9 91.04,-101.78 206.72,-152.65 347.03,-152.65 128.96,0 235.13,41.22 318.56,123.67l0 -94.68 335.65 0 0 991.23 -331.84 0 0 -112.08 -3.81 0c-83.43,94.05 -189.6,141.06 -318.56,141.06 -140.31,0 -255.99,-50.23 -347.03,-150.71zm284.45 -541.03c-42.97,43.79 -64.47,99.84 -64.47,168.1 0,68.29 20.85,123.99 62.57,167.15 41.72,43.15 96.73,64.72 164.98,64.72 65.74,0 119.78,-21.88 162.12,-65.67 42.36,-43.82 63.54,-99.21 63.54,-166.19 0,-68.26 -21.82,-124.3 -65.43,-168.1 -43.61,-43.8 -97.01,-65.68 -160.22,-65.68 -64.48,0 -118.84,21.88 -163.09,65.68z"/>
   <path class="fil0" d="M6380.14 699.48l0 -210.62c1.26,-148.13 35.4,-266.65 102.4,-355.54 67,-88.86 159.9,-133.31 278.74,-133.31 50.57,0 98.93,7.41 145.08,22.22 46.12,14.82 79.32,29.94 99.55,45.42l32.22 21.24 -117.55 241.52c-30.35,-18.03 -63.84,-27.05 -100.51,-27.05 -41.72,0 -69.54,14.5 -83.43,43.48 -13.9,28.98 -20.86,79.55 -20.86,151.66l0 200.97 223.76 0 0 260.85 -223.76 0 0 730.38 -335.63 0 0 -730.38 -140.31 0 0 -260.85 140.31 0z"/>
   <path class="fil0" d="M6905.03 699.48l0 -369.07 335.63 0 0 369.07 204.81 0 0 260.85 -204.81 0 0 314.96c0,91.44 25.29,137.18 75.86,137.18 12.64,0 25.92,-2.57 39.82,-7.73 13.9,-5.14 24.63,-10.3 32.23,-15.46l11.38 -7.73 83.41 276.32c-72.05,41.22 -154.21,61.83 -246.49,61.83 -63.2,0 -117.58,-11.27 -163.09,-33.82 -45.51,-22.53 -79.96,-52.81 -103.33,-90.81 -23.4,-38 -40.15,-77.94 -50.26,-119.79 -10.11,-41.88 -15.18,-86.63 -15.18,-134.3l0 -380.63 -140.31 0 0 -260.85 140.31 0z"/>
  </g>
 </g>
</svg>
